<svg width="877" height="361" viewBox="0 0 877 361" version="1.1" xmlns="http://www.w3.org/2000/svg" xmlns:xlink="http://www.w3.org/1999/xlink">
<title>&#227;&#131;&#147;&#227;&#130;&#191;&#227;&#131;&#159; 3</title>
<desc>Created using Figma</desc>
<g id="Canvas" transform="translate(-2321 -4483)">
<g id="&#227;&#131;&#147;&#227;&#130;&#191;&#227;&#131;&#159; 3" filter="url(#filter0_d)">
<g id="&#227;&#131;&#147;&#227;&#130;&#191;&#227;&#131;&#159;">
<use xlink:href="#path0_fill" transform="translate(2371 4533)" fill="#FF1346" fill-opacity="0.7"/>
</g>
</g>
</g>
<defs>
<filter id="filter0_d" filterUnits="userSpaceOnUse" x="2321" y="4483" width="877" height="379" color-interpolation-filters="sRGB">
<feFlood flood-opacity="0" result="BackgroundImageFix"/>
<feColorMatrix in="SourceAlpha" type="matrix" values="0 0 0 0 0 0 0 0 0 0 0 0 0 0 0 0 0 0 255 0"/>
<feOffset dx="0" dy="0"/>
<feGaussianBlur stdDeviation="25"/>
<feColorMatrix type="matrix" values="0 0 0 0 1 0 0 0 0 0.0745098 0 0 0 0 0.396078 0 0 0 0.6 0"/>
<feBlend mode="normal" in2="BackgroundImageFix" result="effect1_dropShadow"/>
<feBlend mode="normal" in="SourceGraphic" in2="effect1_dropShadow" result="shape"/>
</filter>
<path id="path0_fill" fill-rule="evenodd" d="M 168.192 82.266C 127.92 95.7915 80.9358 105.727 27.24 112.074L 27.24 51.2716C 33.547 46.5026 32.3624 43.3234 23.6863 41.7337L -1.40654e-06 41.7337L -1.40654e-06 228.926C -1.40654e-06 249.606 12.6341 259.94 37.9024 259.927L 176.482 259.927L 178.852 233.696L 42.6436 233.696C 32.3745 233.696 27.24 228.528 27.24 218.191L 27.24 140.69C 74.3832 134.689 121.076 125.527 167.007 113.267C 178.055 118.036 181.608 116.843 177.667 109.689L 168.192 82.266ZM 180.036 57.2273C 166.6 39.7525 154.361 25.8421 143.319 15.496L 126.736 28.6124C 139.723 41.8378 151.98 55.769 163.454 70.3437L 180.036 57.2273ZM 197.803 53.6499L 213.201 40.5348C 201.335 26.3153 188.681 12.7821 175.298 1.68833e-08L 161.085 13.1127C 171.337 23.4499 183.576 36.9615 197.803 53.6475L 197.803 53.6499ZM 374.286 35.7658C 383.762 32.5987 385.342 29.4194 379.024 26.2279L 350.593 14.3044C 337.955 61.2173 311.503 105.73 271.238 147.843L 293.743 163.349C 315.607 141.418 334.342 116.539 349.414 89.4255L 435.879 89.4255C 433.51 108.503 426.403 130.362 414.559 155.001C 398.753 145.464 378.617 135.131 354.152 124.002L 339.938 145.464C 358.89 155.801 378.236 167.326 397.977 180.04C 377.433 212.643 343.479 238.874 296.113 258.733L 323.356 279C 365.996 257.539 398.766 230.115 421.666 196.73L 447.722 215.801L 465.489 189.571L 437.062 170.494C 449.682 144.265 459.158 115.251 465.489 83.4528C 471.796 81.0679 473.375 77.8886 470.227 73.9149L 454.829 58.4238L 441.802 63.1854L 362.442 63.1854C 367.189 54.4155 371.153 45.2384 374.286 35.7622L 374.286 35.7658ZM 762.786 150.228C 718.178 133.255 671.614 122.037 624.205 116.843L 620.652 145.459C 676.709 154.215 721.324 165.741 754.495 180.035L 762.786 150.228ZM 777 234.882C 728.826 215.021 673.946 200.714 612.36 191.959L 606.439 222.959C 653.816 229.33 707.906 244.037 768.709 267.08L 777 234.882ZM 619.468 38.1564L 615.914 69.1569C 667.234 73.1453 712.638 82.2864 752.126 96.5802L 759.233 65.5796C 730.806 54.4537 684.218 45.3126 619.468 38.1564Z"/>
</defs>
</svg>
