<?xml version="1.0" encoding="utf-8"?>
			<!-- Generator: Adobe Illustrator 21.1.0, SVG Export Plug-In . SVG Version: 6.00 Build 0)  -->
			
<svg id="container-sigil" version="1.1" xmlns="http://www.w3.org/2000/svg" xmlns:xlink="http://www.w3.org/1999/xlink" x="0px" y="0px"
			viewBox="0 0 1000.1 1000.1" style="enable-background:new 0 0 1000.1 1000.1;" xml:space="preserve">
				<style type="text/css">
					.st0{display:none;}
					.st1{display:inline;fill-rule:evenodd;clip-rule:evenodd;fill:#A5A4A4;}
					.st2{display:inline;fill-rule:evenodd;clip-rule:evenodd;fill:#474748;}
					.st3{display:inline;fill:none;stroke:#000000;stroke-width:3;stroke-miterlimit:10;}
					.st4{fill-rule:evenodd;clip-rule:evenodd;fill:#FFFFFF;}
					.st5{fill:none;stroke:#FFFFFF;stroke-width:100;stroke-miterlimit:10;}
				</style>
				<g id="Layer_1" class="st0">
					<path class="st1" d="M614.4,189.8l100.5-38.9l160.4,413.8l-100.5,38.9L614.4,189.8z"/>
					<path class="st1" d="M799.6,600.8l48.5,96.2L452,896.8l-48.5-96.2L799.6,600.8z"/>
					<path class="st1" d="M128.2,456.1l95.2-36.7l146.5,380l-95.2,36.7L128.2,456.1z"/>
					<path class="st1" d="M560.9,103.6l47.6,90.2L248.4,384l-47.6-90.2L560.9,103.6z"/>
					<path class="st1" d="M622.9,14.9c67.3,0,121.8,53.8,121.8,120.1c0,66.3-54.5,120.1-121.8,120.1c-67.3,0-121.8-53.8-121.8-120.1
					C501.1,68.7,555.7,14.9,622.9,14.9z"/>
					<path class="st1" d="M383.9,748.8c64.7,0,117.2,53.3,117.2,119c0,65.7-52.5,119-117.2,119c-64.7,0-117.2-53.3-117.2-119
					C266.6,802.1,319.1,748.8,383.9,748.8z"/>
					<path class="st1" d="M817.8,506.6c64.7,0,117.2,54.2,117.2,121.1s-52.5,121.1-117.2,121.1s-117.2-54.2-117.2-121.1
					S753.1,506.6,817.8,506.6z"/>
					<path class="st1" d="M180.4,255.1c65.8,0,119.2,52.1,119.2,116.3c0,64.2-53.3,116.3-119.2,116.3c-65.8,0-119.2-52.1-119.2-116.3
					C61.2,307.2,114.5,255.1,180.4,255.1z"/>
				</g>
				<g id="Layer_3" class="st0">
					<rect x="-77.7" y="-26.6" class="st1" width="1109.9" height="1069.4"/>
					<circle class="st2" cx="409.7" cy="602.4" r="108.2"/>
					<circle class="st2" cx="409.7" cy="384" r="108.2"/>
					<line class="st3" x1="519.9" y1="6.4" x2="519.9" y2="978.3"/>
					<line class="st3" x1="88.8" y1="492.4" x2="906.3" y2="492.4"/>
					<circle class="st2" cx="629.8" cy="384" r="108.2"/>
					<circle class="st2" cx="629.8" cy="600.8" r="108.2"/>
					<circle class="st2" cx="404.7" cy="739.6" r="27.1"/>
					<circle class="st2" cx="629.8" cy="248.7" r="27.1"/>
				</g>
				<g id="Layer_2">
					<circle class="st4" cx="629.8" cy="114.6" r="108.2"/>
					<circle class="st4" cx="848.2" cy="600.8" r="108.2"/>
					<circle class="st4" cx="409.7" cy="876.7" r="108.2"/>
					<circle class="st4" cx="191.3" cy="384" r="108.2"/>
					<line class="st5" x1="191.3" y1="384" x2="629.8" y2="114.6"/>
					<line class="st5" x1="409.7" y1="876.7" x2="848.2" y2="600.8"/>
					<line class="st5" x1="191.3" y1="384" x2="409.7" y2="876.7"/>
					<line class="st5" x1="629.8" y1="114.6" x2="848.2" y2="600.8"/>
				</g>
			</svg>