<svg width="310" height="977" viewBox="0 0 310 977" version="1.1" xmlns="http://www.w3.org/2000/svg" xmlns:xlink="http://www.w3.org/1999/xlink">
<title>&#227;&#131;&#147;&#227;&#130;&#191;&#227;&#131;&#159;2 2</title>
<desc>Created using Figma</desc>
<g id="Canvas" transform="translate(-1761 -1515)">
<g id="&#227;&#131;&#147;&#227;&#130;&#191;&#227;&#131;&#159;2 2">
<g id="&#227;&#131;&#147;&#227;&#130;&#191;&#227;&#131;&#159;" filter="url(#filter0_d)">
<use xlink:href="#path0_fill" transform="translate(1791 1545)" fill="#14F3F9" fill-opacity="0.7"/>
</g>
</g>
</g>
<defs>
<filter id="filter0_d" filterUnits="userSpaceOnUse" x="1761" y="1515" width="310" height="977" color-interpolation-filters="sRGB">
<feFlood flood-opacity="0" result="BackgroundImageFix"/>
<feColorMatrix in="SourceAlpha" type="matrix" values="0 0 0 0 0 0 0 0 0 0 0 0 0 0 0 0 0 0 255 0"/>
<feOffset dx="0" dy="0"/>
<feGaussianBlur stdDeviation="15"/>
<feColorMatrix type="matrix" values="0 0 0 0 0.0784314 0 0 0 0 0.952941 0 0 0 0 0.976471 0 0 0 0.8 0"/>
<feBlend mode="normal" in2="BackgroundImageFix" result="effect1_dropShadow"/>
<feBlend mode="normal" in="SourceGraphic" in2="effect1_dropShadow" result="shape"/>
</filter>
<path id="path0_fill" fill-rule="evenodd" d="M 204.107 75.4654C 163.043 87.8728 115.136 96.9873 60.3849 102.809L 60.3849 47.0332C 66.8158 42.6585 65.608 39.742 56.7613 38.2837L 32.6096 38.2837L 32.6096 210.002C 32.6096 228.972 45.492 238.452 71.2568 238.44L 212.56 238.44L 214.976 214.378L 76.0912 214.378C 65.6203 214.378 60.3849 209.636 60.3849 200.154L 60.3849 129.06C 108.454 123.554 156.065 115.15 202.899 103.903C 214.163 108.278 217.787 107.184 213.768 100.622L 204.107 75.4654ZM 216.183 52.4965C 202.483 36.4664 190.003 23.7059 178.744 14.215L 161.836 26.2471C 175.078 38.3792 187.576 51.1588 199.275 64.5286L 216.183 52.4965ZM 234.3 49.2149L 250 37.1839C 237.901 24.1399 224.998 11.7255 211.353 1.54876e-08L 196.86 12.0288C 207.313 21.5114 219.793 33.906 234.3 49.2127L 234.3 49.2149ZM 105.072 368.808C 114.734 365.903 116.345 362.987 109.904 360.059L 80.9143 349.121C 68.0286 392.156 41.0572 432.989 8.86924e-07 471.621L 22.9472 485.839C 45.2401 465.721 64.3438 442.9 79.7122 418.028L 167.876 418.028C 165.461 435.528 158.215 455.58 146.137 478.183C 130.02 469.433 109.489 459.955 84.5428 449.746L 70.0486 469.433C 89.3718 478.916 109.098 489.489 129.228 501.152C 108.28 531.059 73.6585 555.121 25.3625 573.339L 53.1403 591.931C 96.6181 572.244 130.032 547.087 153.382 516.462L 179.951 533.961L 198.068 509.899L 169.082 492.399C 181.953 468.335 191.615 441.721 198.068 412.555C 204.499 410.368 206.109 407.451 202.899 403.805L 187.192 389.587L 173.915 393.961L 92.9958 393.961C 97.8364 385.917 101.878 377.498 105.072 368.805L 105.072 368.808ZM 192.029 809.807C 146.544 794.238 99.0651 783.947 50.725 779.182L 47.1014 805.433C 104.261 813.465 149.752 824.038 183.575 837.151L 192.029 809.807ZM 206.522 887.463C 157.402 869.245 101.443 856.12 38.6472 848.089L 32.6084 876.527C 80.9176 882.371 136.071 895.862 198.068 917L 206.522 887.463ZM 45.8944 707.001L 42.2708 735.438C 94.5994 739.097 140.894 747.482 181.154 760.595L 188.399 732.157C 159.419 721.951 111.917 713.566 45.8944 707.001Z"/>
</defs>
</svg>
