<svg xmlns="http://www.w3.org/2000/svg" width="736" height="247" viewBox="0 0 736 247">
  <metadata><?xpacket begin="﻿" id="W5M0MpCehiHzreSzNTczkc9d"?>
<x:xmpmeta xmlns:x="adobe:ns:meta/" x:xmptk="Adobe XMP Core 5.6-c138 79.159824, 2016/09/14-01:09:01        ">
   <rdf:RDF xmlns:rdf="http://www.w3.org/1999/02/22-rdf-syntax-ns#">
      <rdf:Description rdf:about=""/>
   </rdf:RDF>
</x:xmpmeta>
                                                                                                    
                                                                                                    
                                                                                                    
                                                                                                    
                                                                                                    
                                                                                                    
                                                                                                    
                                                                                                    
                                                                                                    
                                                                                                    
                                                                                                    
                                                                                                    
                                                                                                    
                                                                                                    
                                                                                                    
                                                                                                    
                                                                                                    
                                                                                                    
                                                                                                    
                                                                                                    
                           
<?xpacket end="w"?></metadata>
<defs>
    <style>
      .cls-1 {
        fill-rule: evenodd;
      }
    </style>
  </defs>
  <path id="ビタミ" class="cls-1" d="M195.313,67.828Q145.507,84.445,79.1,92.242v-49.8q7.8-5.859-2.93-7.812H56.641v153.32q0,25.407,31.25,25.391H202.148l1.954-21.484H91.8q-12.7,0-12.7-12.7V115.68A880.629,880.629,0,0,0,194.336,93.219q13.663,5.859,8.789-2.93Zm9.765-20.508q-16.617-21.469-30.273-34.18L161.133,23.883a417.224,417.224,0,0,1,30.273,34.18Zm14.649-2.93,12.695-10.742a403.749,403.749,0,0,0-31.25-33.2L189.453,11.188q12.679,12.7,30.274,33.2h0ZM365.234,29.742q11.72-3.891,3.907-7.812L345.7,12.164Q330.07,69.8,280.273,121.539l18.555,12.7a275.177,275.177,0,0,0,45.9-60.547h71.289q-2.93,23.438-17.578,53.71-19.548-11.718-49.805-25.39l-11.719,17.578q23.438,12.7,47.852,28.32-25.407,40.055-83.985,64.453l22.461,16.6q52.734-26.367,81.055-67.383L425.781,177.2l14.649-21.484-23.438-15.625Q432.6,107.867,440.43,68.8q7.8-2.93,3.906-7.812L431.641,48.3,420.9,52.2H355.469a138.064,138.064,0,0,0,9.765-22.461h0Zm320.313,93.75A465.672,465.672,0,0,0,571.289,96.148l-2.93,23.438q69.328,10.758,110.352,28.32Zm11.719,69.336q-59.578-24.4-135.743-35.156l-4.882,25.391Q615.234,190.89,690.43,219.2ZM567.383,31.7l-2.93,25.391q63.469,4.9,112.305,22.461l5.859-25.391Q647.461,40.492,567.383,31.7h0Z"/>
</svg>
