<svg xmlns="http://www.w3.org/2000/svg" width="273" height="854" viewBox="0 0 273 854">
  <metadata><?xpacket begin="﻿" id="W5M0MpCehiHzreSzNTczkc9d"?>
<x:xmpmeta xmlns:x="adobe:ns:meta/" x:xmptk="Adobe XMP Core 5.6-c138 79.159824, 2016/09/14-01:09:01        ">
   <rdf:RDF xmlns:rdf="http://www.w3.org/1999/02/22-rdf-syntax-ns#">
      <rdf:Description rdf:about=""/>
   </rdf:RDF>
</x:xmpmeta>
                                                                                                    
                                                                                                    
                                                                                                    
                                                                                                    
                                                                                                    
                                                                                                    
                                                                                                    
                                                                                                    
                                                                                                    
                                                                                                    
                                                                                                    
                                                                                                    
                                                                                                    
                                                                                                    
                                                                                                    
                                                                                                    
                                                                                                    
                                                                                                    
                                                                                                    
                                                                                                    
                           
<?xpacket end="w"?></metadata>
<defs>
    <style>
      .cls-1 {
        fill-rule: evenodd;
      }
    </style>
  </defs>
  <path id="ビタミ" class="cls-1" d="M195.313,67.828Q145.507,84.445,79.1,92.242v-49.8q7.8-5.859-2.93-7.812H56.641v153.32q0,25.407,31.25,25.391H202.148l1.954-21.484H91.8q-12.7,0-12.7-12.7V115.68A880.629,880.629,0,0,0,194.336,93.219q13.663,5.859,8.789-2.93Zm9.765-20.508q-16.617-21.469-30.273-34.18L161.133,23.883a417.224,417.224,0,0,1,30.273,34.18Zm14.649-2.93,12.695-10.742a403.749,403.749,0,0,0-31.25-33.2L189.453,11.188q12.679,12.7,30.274,33.2h0ZM115.234,329.742q11.719-3.891,3.907-7.812L95.7,312.164Q80.071,369.8,30.273,421.539l18.555,12.695a275.181,275.181,0,0,0,45.9-60.546h71.289q-2.929,23.438-17.578,53.71-19.548-11.718-49.805-25.39L86.914,419.586q23.437,12.7,47.852,28.32-25.407,40.054-83.985,64.453l22.461,16.6q52.734-26.367,81.055-67.383L175.781,477.2l14.649-21.484-23.438-15.625q15.611-32.228,23.438-71.289,7.8-2.93,3.906-7.813l-12.7-12.695L170.9,352.2H105.469a138.035,138.035,0,0,0,9.765-22.461h0Zm70.313,393.75A465.691,465.691,0,0,0,71.289,696.148l-2.93,23.438q69.328,10.758,110.352,28.32Zm11.719,69.336q-59.578-24.4-135.743-35.156l-4.883,25.391Q115.234,790.89,190.43,819.2ZM67.383,631.7l-2.93,25.391q63.469,4.9,112.3,22.461l5.859-25.391Q147.462,640.493,67.383,631.7h0Z"/>
</svg>
